<svg width="229" height="78" viewBox="0 0 229 78" fill="none" xmlns="http://www.w3.org/2000/svg">
<path d="M9.3457 16.2344H12.5098C12.4577 17.2109 12.1908 18.0736 11.709 18.8223C11.2337 19.5645 10.5729 20.1471 9.72656 20.5703C8.88021 20.987 7.87435 21.1953 6.70898 21.1953C5.77799 21.1953 4.94466 21.0358 4.20898 20.7168C3.47331 20.3978 2.84831 19.9421 2.33398 19.3496C1.82617 18.7507 1.43555 18.0312 1.16211 17.1914C0.895182 16.3451 0.761719 15.3913 0.761719 14.3301V13.4609C0.761719 12.3997 0.901693 11.446 1.18164 10.5996C1.46159 9.75326 1.86198 9.0306 2.38281 8.43164C2.90365 7.83268 3.52865 7.3737 4.25781 7.05469C4.98698 6.73568 5.80078 6.57617 6.69922 6.57617C7.91016 6.57617 8.93229 6.79427 9.76562 7.23047C10.599 7.66667 11.2435 8.26562 11.6992 9.02734C12.1615 9.78906 12.4382 10.6582 12.5293 11.6348H9.35547C9.32943 11.0814 9.22526 10.6159 9.04297 10.2383C8.86068 9.85417 8.58073 9.56445 8.20312 9.36914C7.82552 9.17383 7.32422 9.07617 6.69922 9.07617C6.24349 9.07617 5.8431 9.16081 5.49805 9.33008C5.15951 9.49935 4.8763 9.76302 4.64844 10.1211C4.42708 10.4792 4.26107 10.9349 4.15039 11.4883C4.03971 12.0352 3.98438 12.6862 3.98438 13.4414V14.3301C3.98438 15.0788 4.0332 15.7266 4.13086 16.2734C4.22852 16.8203 4.38477 17.2728 4.59961 17.6309C4.82096 17.9889 5.10417 18.2559 5.44922 18.4316C5.79427 18.6074 6.21419 18.6953 6.70898 18.6953C7.27539 18.6953 7.7474 18.6074 8.125 18.4316C8.5026 18.2493 8.79232 17.9759 8.99414 17.6113C9.19596 17.2467 9.31315 16.7878 9.3457 16.2344ZM26.1328 13.5781V14.2129C26.1328 15.2936 25.9831 16.2637 25.6836 17.123C25.3906 17.9824 24.9707 18.7148 24.4238 19.3203C23.8835 19.9258 23.2389 20.3913 22.4902 20.7168C21.748 21.0358 20.9245 21.1953 20.0195 21.1953C19.1146 21.1953 18.2878 21.0358 17.5391 20.7168C16.7904 20.3913 16.1393 19.9258 15.5859 19.3203C15.0391 18.7148 14.6159 17.9824 14.3164 17.123C14.0169 16.2637 13.8672 15.2936 13.8672 14.2129V13.5781C13.8672 12.4974 14.0169 11.5273 14.3164 10.668C14.6159 9.80208 15.0358 9.06641 15.5762 8.46094C16.123 7.85547 16.7708 7.39323 17.5195 7.07422C18.2682 6.7487 19.0951 6.58594 20 6.58594C20.9049 6.58594 21.7318 6.7487 22.4805 7.07422C23.2292 7.39323 23.8737 7.85547 24.4141 8.46094C24.9609 9.06641 25.3841 9.80208 25.6836 10.668C25.9831 11.5273 26.1328 12.4974 26.1328 13.5781ZM22.9199 14.2129V13.5586C22.9199 12.8359 22.8548 12.1979 22.7246 11.6445C22.5944 11.0846 22.4056 10.6159 22.1582 10.2383C21.9108 9.86068 21.6048 9.57747 21.2402 9.38867C20.8757 9.19336 20.4622 9.0957 20 9.0957C19.5182 9.0957 19.0983 9.19336 18.7402 9.38867C18.3822 9.57747 18.0794 9.86068 17.832 10.2383C17.5911 10.6159 17.4056 11.0846 17.2754 11.6445C17.1517 12.1979 17.0898 12.8359 17.0898 13.5586V14.2129C17.0898 14.929 17.1517 15.5671 17.2754 16.127C17.4056 16.6803 17.5944 17.1491 17.8418 17.5332C18.0892 17.9173 18.3919 18.207 18.75 18.4023C19.1146 18.5977 19.5378 18.6953 20.0195 18.6953C20.4818 18.6953 20.8919 18.5977 21.25 18.4023C21.6146 18.207 21.9206 17.9173 22.168 17.5332C22.4154 17.1491 22.6009 16.6803 22.7246 16.127C22.8548 15.5671 22.9199 14.929 22.9199 14.2129ZM37.3633 18.5391V21H30.1855V18.5391H37.3633ZM31.2695 6.78125V21H28.0859V6.78125H31.2695ZM48.2031 18.5391V21H41.0254V18.5391H48.2031ZM42.1094 6.78125V21H38.9258V6.78125H42.1094ZM59.4336 18.5391V21H51.8652V18.5391H59.4336ZM52.9492 6.78125V21H49.7656V6.78125H52.9492ZM58.457 12.5039V14.8867H51.8652V12.5039H58.457ZM59.4434 6.78125V9.25195H51.8652V6.78125H59.4434ZM72.4512 13.4902V19.2227C72.2168 19.4896 71.8587 19.776 71.377 20.082C70.9017 20.388 70.293 20.6517 69.5508 20.873C68.8086 21.0879 67.9232 21.1953 66.8945 21.1953C65.9635 21.1953 65.1172 21.0456 64.3555 20.7461C63.5938 20.4401 62.9395 19.9941 62.3926 19.4082C61.8457 18.8158 61.4225 18.0931 61.123 17.2402C60.8301 16.3874 60.6836 15.4108 60.6836 14.3105V13.4707C60.6836 12.3704 60.8301 11.3939 61.123 10.541C61.416 9.68815 61.8294 8.96875 62.3633 8.38281C62.8971 7.79036 63.5319 7.34115 64.2676 7.03516C65.0033 6.72917 65.8171 6.57617 66.709 6.57617C67.9785 6.57617 69.0169 6.78125 69.8242 7.19141C70.6315 7.59505 71.2435 8.15495 71.6602 8.87109C72.0833 9.58724 72.3438 10.4108 72.4414 11.3418H69.375C69.3099 10.8665 69.1797 10.4564 68.9844 10.1113C68.7956 9.76628 68.5254 9.5026 68.1738 9.32031C67.8223 9.13151 67.3665 9.03711 66.8066 9.03711C66.3574 9.03711 65.9505 9.13151 65.5859 9.32031C65.2279 9.5026 64.9251 9.7793 64.6777 10.1504C64.4303 10.5215 64.2415 10.9837 64.1113 11.5371C63.9811 12.084 63.916 12.722 63.916 13.4512V14.3105C63.916 15.0397 63.9811 15.681 64.1113 16.2344C64.248 16.7878 64.4466 17.25 64.707 17.6211C64.9674 17.9857 65.2962 18.2624 65.6934 18.4512C66.097 18.64 66.5658 18.7344 67.0996 18.7344C67.5163 18.7344 67.8678 18.7018 68.1543 18.6367C68.4408 18.5651 68.6751 18.4772 68.8574 18.373C69.0397 18.2624 69.1764 18.1615 69.2676 18.0703V15.707H66.7383V13.4902H72.4512ZM84.2969 18.5391V21H76.7285V18.5391H84.2969ZM77.8125 6.78125V21H74.6289V6.78125H77.8125ZM83.3203 12.5039V14.8867H76.7285V12.5039H83.3203ZM84.3066 6.78125V9.25195H76.7285V6.78125H84.3066ZM102.695 13.5781V14.2129C102.695 15.2936 102.546 16.2637 102.246 17.123C101.953 17.9824 101.533 18.7148 100.986 19.3203C100.446 19.9258 99.8014 20.3913 99.0527 20.7168C98.3105 21.0358 97.487 21.1953 96.582 21.1953C95.6771 21.1953 94.8503 21.0358 94.1016 20.7168C93.3529 20.3913 92.7018 19.9258 92.1484 19.3203C91.6016 18.7148 91.1784 17.9824 90.8789 17.123C90.5794 16.2637 90.4297 15.2936 90.4297 14.2129V13.5781C90.4297 12.4974 90.5794 11.5273 90.8789 10.668C91.1784 9.80208 91.5983 9.06641 92.1387 8.46094C92.6855 7.85547 93.3333 7.39323 94.082 7.07422C94.8307 6.7487 95.6576 6.58594 96.5625 6.58594C97.4674 6.58594 98.2943 6.7487 99.043 7.07422C99.7917 7.39323 100.436 7.85547 100.977 8.46094C101.523 9.06641 101.947 9.80208 102.246 10.668C102.546 11.5273 102.695 12.4974 102.695 13.5781ZM99.4824 14.2129V13.5586C99.4824 12.8359 99.4173 12.1979 99.2871 11.6445C99.1569 11.0846 98.9681 10.6159 98.7207 10.2383C98.4733 9.86068 98.1673 9.57747 97.8027 9.38867C97.4382 9.19336 97.0247 9.0957 96.5625 9.0957C96.0807 9.0957 95.6608 9.19336 95.3027 9.38867C94.9447 9.57747 94.6419 9.86068 94.3945 10.2383C94.1536 10.6159 93.9681 11.0846 93.8379 11.6445C93.7142 12.1979 93.6523 12.8359 93.6523 13.5586V14.2129C93.6523 14.929 93.7142 15.5671 93.8379 16.127C93.9681 16.6803 94.1569 17.1491 94.4043 17.5332C94.6517 17.9173 94.9544 18.207 95.3125 18.4023C95.6771 18.5977 96.1003 18.6953 96.582 18.6953C97.0443 18.6953 97.4544 18.5977 97.8125 18.4023C98.1771 18.207 98.4831 17.9173 98.7305 17.5332C98.9779 17.1491 99.1634 16.6803 99.2871 16.127C99.4173 15.5671 99.4824 14.929 99.4824 14.2129ZM107.832 6.78125V21H104.648V6.78125H107.832ZM113.428 12.7773V15.2383H106.943V12.7773H113.428ZM114.053 6.78125V9.25195H106.943V6.78125H114.053ZM127.959 17.25C127.959 17.0091 127.923 16.7943 127.852 16.6055C127.78 16.4102 127.65 16.2311 127.461 16.0684C127.272 15.9056 127.005 15.7428 126.66 15.5801C126.315 15.4108 125.863 15.2383 125.303 15.0625C124.665 14.8542 124.056 14.6198 123.477 14.3594C122.904 14.0924 122.393 13.7832 121.943 13.4316C121.494 13.0801 121.139 12.6699 120.879 12.2012C120.625 11.7324 120.498 11.1855 120.498 10.5605C120.498 9.95508 120.632 9.4082 120.898 8.91992C121.165 8.43164 121.54 8.01497 122.021 7.66992C122.503 7.31836 123.07 7.05143 123.721 6.86914C124.372 6.68034 125.088 6.58594 125.869 6.58594C126.911 6.58594 127.826 6.77148 128.613 7.14258C129.408 7.50716 130.026 8.02148 130.469 8.68555C130.911 9.3431 131.133 10.1081 131.133 10.9805H127.969C127.969 10.5964 127.887 10.2578 127.725 9.96484C127.568 9.66536 127.327 9.43099 127.002 9.26172C126.683 9.09245 126.283 9.00781 125.801 9.00781C125.332 9.00781 124.938 9.07943 124.619 9.22266C124.307 9.35938 124.069 9.54818 123.906 9.78906C123.75 10.0299 123.672 10.2936 123.672 10.5801C123.672 10.8079 123.73 11.0163 123.848 11.2051C123.971 11.3874 124.147 11.5599 124.375 11.7227C124.609 11.8789 124.896 12.0286 125.234 12.1719C125.573 12.3151 125.96 12.4518 126.396 12.582C127.158 12.8229 127.832 13.0898 128.418 13.3828C129.01 13.6758 129.508 14.0078 129.912 14.3789C130.316 14.75 130.618 15.1699 130.82 15.6387C131.029 16.1074 131.133 16.638 131.133 17.2305C131.133 17.862 131.009 18.4219 130.762 18.9102C130.521 19.3984 130.169 19.8151 129.707 20.1602C129.251 20.4987 128.704 20.7559 128.066 20.9316C127.428 21.1074 126.715 21.1953 125.928 21.1953C125.212 21.1953 124.505 21.1042 123.809 20.9219C123.112 20.7331 122.48 20.4466 121.914 20.0625C121.354 19.6784 120.905 19.1901 120.566 18.5977C120.234 17.9987 120.068 17.2891 120.068 16.4688H123.252C123.252 16.8984 123.314 17.263 123.438 17.5625C123.561 17.8555 123.737 18.0931 123.965 18.2754C124.199 18.4577 124.482 18.5879 124.814 18.666C125.146 18.7441 125.518 18.7832 125.928 18.7832C126.403 18.7832 126.787 18.7181 127.08 18.5879C127.38 18.4512 127.601 18.2656 127.744 18.0312C127.887 17.7969 127.959 17.5365 127.959 17.25ZM141.182 16.2344H144.346C144.294 17.2109 144.027 18.0736 143.545 18.8223C143.07 19.5645 142.409 20.1471 141.562 20.5703C140.716 20.987 139.71 21.1953 138.545 21.1953C137.614 21.1953 136.781 21.0358 136.045 20.7168C135.309 20.3978 134.684 19.9421 134.17 19.3496C133.662 18.7507 133.271 18.0312 132.998 17.1914C132.731 16.3451 132.598 15.3913 132.598 14.3301V13.4609C132.598 12.3997 132.738 11.446 133.018 10.5996C133.298 9.75326 133.698 9.0306 134.219 8.43164C134.74 7.83268 135.365 7.3737 136.094 7.05469C136.823 6.73568 137.637 6.57617 138.535 6.57617C139.746 6.57617 140.768 6.79427 141.602 7.23047C142.435 7.66667 143.079 8.26562 143.535 9.02734C143.997 9.78906 144.274 10.6582 144.365 11.6348H141.191C141.165 11.0814 141.061 10.6159 140.879 10.2383C140.697 9.85417 140.417 9.56445 140.039 9.36914C139.661 9.17383 139.16 9.07617 138.535 9.07617C138.079 9.07617 137.679 9.16081 137.334 9.33008C136.995 9.49935 136.712 9.76302 136.484 10.1211C136.263 10.4792 136.097 10.9349 135.986 11.4883C135.876 12.0352 135.82 12.6862 135.82 13.4414V14.3301C135.82 15.0788 135.869 15.7266 135.967 16.2734C136.064 16.8203 136.221 17.2728 136.436 17.6309C136.657 17.9889 136.94 18.2559 137.285 18.4316C137.63 18.6074 138.05 18.6953 138.545 18.6953C139.111 18.6953 139.583 18.6074 139.961 18.4316C140.339 18.2493 140.628 17.9759 140.83 17.6113C141.032 17.2467 141.149 16.7878 141.182 16.2344ZM149.502 6.78125V21H146.328V6.78125H149.502ZM161.738 18.5391V21H154.17V18.5391H161.738ZM155.254 6.78125V21H152.07V6.78125H155.254ZM160.762 12.5039V14.8867H154.17V12.5039H160.762ZM161.748 6.78125V9.25195H154.17V6.78125H161.748ZM175.029 6.78125V21H171.855L166.484 11.8105V21H163.301V6.78125H166.484L171.865 15.9707V6.78125H175.029ZM185.557 16.2344H188.721C188.669 17.2109 188.402 18.0736 187.92 18.8223C187.445 19.5645 186.784 20.1471 185.938 20.5703C185.091 20.987 184.085 21.1953 182.92 21.1953C181.989 21.1953 181.156 21.0358 180.42 20.7168C179.684 20.3978 179.059 19.9421 178.545 19.3496C178.037 18.7507 177.646 18.0312 177.373 17.1914C177.106 16.3451 176.973 15.3913 176.973 14.3301V13.4609C176.973 12.3997 177.113 11.446 177.393 10.5996C177.673 9.75326 178.073 9.0306 178.594 8.43164C179.115 7.83268 179.74 7.3737 180.469 7.05469C181.198 6.73568 182.012 6.57617 182.91 6.57617C184.121 6.57617 185.143 6.79427 185.977 7.23047C186.81 7.66667 187.454 8.26562 187.91 9.02734C188.372 9.78906 188.649 10.6582 188.74 11.6348H185.566C185.54 11.0814 185.436 10.6159 185.254 10.2383C185.072 9.85417 184.792 9.56445 184.414 9.36914C184.036 9.17383 183.535 9.07617 182.91 9.07617C182.454 9.07617 182.054 9.16081 181.709 9.33008C181.37 9.49935 181.087 9.76302 180.859 10.1211C180.638 10.4792 180.472 10.9349 180.361 11.4883C180.251 12.0352 180.195 12.6862 180.195 13.4414V14.3301C180.195 15.0788 180.244 15.7266 180.342 16.2734C180.439 16.8203 180.596 17.2728 180.811 17.6309C181.032 17.9889 181.315 18.2559 181.66 18.4316C182.005 18.6074 182.425 18.6953 182.92 18.6953C183.486 18.6953 183.958 18.6074 184.336 18.4316C184.714 18.2493 185.003 17.9759 185.205 17.6113C185.407 17.2467 185.524 16.7878 185.557 16.2344ZM200.156 18.5391V21H192.588V18.5391H200.156ZM193.672 6.78125V21H190.488V6.78125H193.672ZM199.18 12.5039V14.8867H192.588V12.5039H199.18ZM200.166 6.78125V9.25195H192.588V6.78125H200.166ZM7.08008 37.4863L3.4082 49H0.00976562L5.27344 34.7812H7.42188L7.08008 37.4863ZM10.127 49L6.44531 37.4863L6.06445 34.7812H8.24219L13.5254 49H10.127ZM9.9707 43.707V46.168H2.55859V43.707H9.9707ZM26.4355 34.7812V49H23.2617L17.8906 39.8105V49H14.707V34.7812H17.8906L23.2715 43.9707V34.7812H26.4355ZM33.291 49H30.166L30.1855 46.5391H33.291C34.0007 46.5391 34.5996 46.3763 35.0879 46.0508C35.5762 45.7188 35.9473 45.2305 36.2012 44.5859C36.4551 43.9349 36.582 43.1439 36.582 42.2129V41.5586C36.582 40.8555 36.5104 40.237 36.3672 39.7031C36.224 39.1628 36.0124 38.7103 35.7324 38.3457C35.4525 37.9811 35.1042 37.7077 34.6875 37.5254C34.2773 37.3431 33.8053 37.252 33.2715 37.252H30.1074V34.7812H33.2715C34.235 34.7812 35.1139 34.944 35.9082 35.2695C36.709 35.5951 37.3991 36.0605 37.9785 36.666C38.5645 37.2715 39.0169 37.9876 39.3359 38.8145C39.6549 39.6413 39.8145 40.5625 39.8145 41.5781V42.2129C39.8145 43.222 39.6549 44.1432 39.3359 44.9766C39.0169 45.8034 38.5645 46.5195 37.9785 47.125C37.3991 47.724 36.7122 48.1862 35.918 48.5117C35.1237 48.8372 34.248 49 33.291 49ZM31.9727 34.7812V49H28.7891V34.7812H31.9727ZM56.4062 46.5391V49H48.8379V46.5391H56.4062ZM49.9219 34.7812V49H46.7383V34.7812H49.9219ZM55.4297 40.5039V42.8867H48.8379V40.5039H55.4297ZM56.416 34.7812V37.252H48.8379V34.7812H56.416ZM69.6973 34.7812V49H66.5234L61.1523 39.8105V49H57.9688V34.7812H61.1523L66.5332 43.9707V34.7812H69.6973ZM83.5059 41.4902V47.2227C83.2715 47.4896 82.9134 47.776 82.4316 48.082C81.9564 48.388 81.3477 48.6517 80.6055 48.873C79.8633 49.0879 78.9779 49.1953 77.9492 49.1953C77.0182 49.1953 76.1719 49.0456 75.4102 48.7461C74.6484 48.4401 73.9941 47.9941 73.4473 47.4082C72.9004 46.8158 72.4772 46.0931 72.1777 45.2402C71.8848 44.3874 71.7383 43.4108 71.7383 42.3105V41.4707C71.7383 40.3704 71.8848 39.3939 72.1777 38.541C72.4707 37.6882 72.8841 36.9688 73.418 36.3828C73.9518 35.7904 74.5866 35.3411 75.3223 35.0352C76.0579 34.7292 76.8717 34.5762 77.7637 34.5762C79.0332 34.5762 80.0716 34.7812 80.8789 35.1914C81.6862 35.5951 82.2982 36.1549 82.7148 36.8711C83.138 37.5872 83.3984 38.4108 83.4961 39.3418H80.4297C80.3646 38.8665 80.2344 38.4564 80.0391 38.1113C79.8503 37.7663 79.5801 37.5026 79.2285 37.3203C78.877 37.1315 78.4212 37.0371 77.8613 37.0371C77.4121 37.0371 77.0052 37.1315 76.6406 37.3203C76.2826 37.5026 75.9798 37.7793 75.7324 38.1504C75.485 38.5215 75.2962 38.9837 75.166 39.5371C75.0358 40.084 74.9707 40.722 74.9707 41.4512V42.3105C74.9707 43.0397 75.0358 43.681 75.166 44.2344C75.3027 44.7878 75.5013 45.25 75.7617 45.6211C76.0221 45.9857 76.3509 46.2624 76.748 46.4512C77.1517 46.64 77.6204 46.7344 78.1543 46.7344C78.571 46.7344 78.9225 46.7018 79.209 46.6367C79.4954 46.5651 79.7298 46.4772 79.9121 46.373C80.0944 46.2624 80.2311 46.1615 80.3223 46.0703V43.707H77.793V41.4902H83.5059ZM89.0723 34.7812V49H85.8984V34.7812H89.0723ZM103.369 34.7812V49H100.195L94.8242 39.8105V49H91.6406V34.7812H94.8242L100.205 43.9707V34.7812H103.369ZM115.391 46.5391V49H107.822V46.5391H115.391ZM108.906 34.7812V49H105.723V34.7812H108.906ZM114.414 40.5039V42.8867H107.822V40.5039H114.414ZM115.4 34.7812V37.252H107.822V34.7812H115.4ZM126.621 46.5391V49H119.053V46.5391H126.621ZM120.137 34.7812V49H116.953V34.7812H120.137ZM125.645 40.5039V42.8867H119.053V40.5039H125.645ZM126.631 34.7812V37.252H119.053V34.7812H126.631ZM128.184 34.7812H133.643C134.73 34.7812 135.671 34.944 136.465 35.2695C137.266 35.5951 137.881 36.0768 138.311 36.7148C138.74 37.3529 138.955 38.1406 138.955 39.0781C138.955 39.8594 138.828 40.5234 138.574 41.0703C138.32 41.6172 137.962 42.0697 137.5 42.4277C137.044 42.7858 136.51 43.0755 135.898 43.2969L134.863 43.8633H130.215L130.195 41.3926H133.652C134.128 41.3926 134.521 41.3079 134.834 41.1387C135.146 40.9694 135.381 40.7318 135.537 40.4258C135.7 40.1133 135.781 39.7487 135.781 39.332C135.781 38.9023 135.7 38.5312 135.537 38.2188C135.374 37.9062 135.133 37.6686 134.814 37.5059C134.502 37.3366 134.111 37.252 133.643 37.252H131.367V49H128.184V34.7812ZM136.055 49L132.861 42.6816L136.221 42.6719L139.463 48.8535V49H136.055ZM144.502 34.7812V49H141.328V34.7812H144.502ZM158.799 34.7812V49H155.625L150.254 39.8105V49H147.07V34.7812H150.254L155.635 43.9707V34.7812H158.799ZM172.607 41.4902V47.2227C172.373 47.4896 172.015 47.776 171.533 48.082C171.058 48.388 170.449 48.6517 169.707 48.873C168.965 49.0879 168.079 49.1953 167.051 49.1953C166.12 49.1953 165.273 49.0456 164.512 48.7461C163.75 48.4401 163.096 47.9941 162.549 47.4082C162.002 46.8158 161.579 46.0931 161.279 45.2402C160.986 44.3874 160.84 43.4108 160.84 42.3105V41.4707C160.84 40.3704 160.986 39.3939 161.279 38.541C161.572 37.6882 161.986 36.9688 162.52 36.3828C163.053 35.7904 163.688 35.3411 164.424 35.0352C165.16 34.7292 165.973 34.5762 166.865 34.5762C168.135 34.5762 169.173 34.7812 169.98 35.1914C170.788 35.5951 171.4 36.1549 171.816 36.8711C172.24 37.5872 172.5 38.4108 172.598 39.3418H169.531C169.466 38.8665 169.336 38.4564 169.141 38.1113C168.952 37.7663 168.682 37.5026 168.33 37.3203C167.979 37.1315 167.523 37.0371 166.963 37.0371C166.514 37.0371 166.107 37.1315 165.742 37.3203C165.384 37.5026 165.081 37.7793 164.834 38.1504C164.587 38.5215 164.398 38.9837 164.268 39.5371C164.137 40.084 164.072 40.722 164.072 41.4512V42.3105C164.072 43.0397 164.137 43.681 164.268 44.2344C164.404 44.7878 164.603 45.25 164.863 45.6211C165.124 45.9857 165.452 46.2624 165.85 46.4512C166.253 46.64 166.722 46.7344 167.256 46.7344C167.673 46.7344 168.024 46.7018 168.311 46.6367C168.597 46.5651 168.831 46.4772 169.014 46.373C169.196 46.2624 169.333 46.1615 169.424 46.0703V43.707H166.895V41.4902H172.607Z" fill="white"/>
<path d="M7.58789 67.2031V68.5635H2.30371V67.2031H7.58789ZM2.72754 63.0469V73H1.01172V63.0469H2.72754ZM8.90723 63.0469V73H7.19824V63.0469H8.90723ZM14.9502 64.373L11.9766 73H10.1787L13.9248 63.0469H15.0732L14.9502 64.373ZM17.4385 73L14.458 64.373L14.3281 63.0469H15.4834L19.2432 73H17.4385ZM17.2949 69.3086V70.6689H11.8809V69.3086H17.2949ZM21.0547 63.0469H22.5859L25.4639 70.7236L28.335 63.0469H29.8662L26.0654 73H24.8486L21.0547 63.0469ZM20.3574 63.0469H21.8135L22.0664 69.6914V73H20.3574V63.0469ZM29.1074 63.0469H30.5703V73H28.8545V69.6914L29.1074 63.0469ZM36.6064 64.373L33.6328 73H31.835L35.5811 63.0469H36.7295L36.6064 64.373ZM39.0947 73L36.1143 64.373L35.9844 63.0469H37.1396L40.8994 73H39.0947ZM38.9512 69.3086V70.6689H33.5371V69.3086H38.9512ZM44.9053 73H42.7793L42.793 71.6396H44.9053C45.5205 71.6396 46.0355 71.5052 46.4502 71.2363C46.8695 70.9674 47.1839 70.5824 47.3936 70.0811C47.6077 69.5798 47.7148 68.9827 47.7148 68.29V67.75C47.7148 67.2122 47.6533 66.736 47.5303 66.3213C47.4118 65.9066 47.234 65.5579 46.9971 65.2754C46.7646 64.9928 46.4775 64.7786 46.1357 64.6328C45.7985 64.487 45.4089 64.4141 44.9668 64.4141H42.7383V63.0469H44.9668C45.6276 63.0469 46.2314 63.1585 46.7783 63.3818C47.3252 63.6006 47.7969 63.9173 48.1934 64.332C48.5944 64.7467 48.902 65.2435 49.1162 65.8223C49.3304 66.401 49.4375 67.0482 49.4375 67.7637V68.29C49.4375 69.0055 49.3304 69.6527 49.1162 70.2314C48.902 70.8102 48.5944 71.307 48.1934 71.7217C47.7923 72.1318 47.3138 72.4486 46.7578 72.6719C46.2064 72.8906 45.5889 73 44.9053 73ZM43.7295 63.0469V73H42.0137V63.0469H43.7295ZM58.3789 68.502H55.8428L55.8291 67.251H58.0439C58.4176 67.251 58.7344 67.1963 58.9941 67.0869C59.2585 66.973 59.459 66.8112 59.5957 66.6016C59.7324 66.3874 59.8008 66.1299 59.8008 65.8291C59.8008 65.4964 59.737 65.2253 59.6094 65.0156C59.4818 64.806 59.2858 64.6533 59.0215 64.5576C58.7617 64.4619 58.429 64.4141 58.0234 64.4141H56.3623V73H54.6465V63.0469H58.0234C58.5703 63.0469 59.0579 63.0993 59.4863 63.2041C59.9193 63.3089 60.2861 63.473 60.5869 63.6963C60.8923 63.915 61.1224 64.193 61.2773 64.5303C61.4368 64.8675 61.5166 65.2686 61.5166 65.7334C61.5166 66.1436 61.4186 66.5195 61.2227 66.8613C61.0267 67.1986 60.7373 67.4743 60.3545 67.6885C59.9717 67.9027 59.4954 68.0303 58.9258 68.0713L58.3789 68.502ZM58.3037 73H55.3027L56.0752 71.6396H58.3037C58.6911 71.6396 59.0146 71.5758 59.2744 71.4482C59.5342 71.3161 59.7279 71.1361 59.8555 70.9082C59.9876 70.6758 60.0537 70.4046 60.0537 70.0947C60.0537 69.7712 59.9967 69.4909 59.8828 69.2539C59.7689 69.0124 59.5889 68.8278 59.3428 68.7002C59.0967 68.568 58.7754 68.502 58.3789 68.502H56.4512L56.4648 67.251H58.9736L59.3633 67.7227C59.9102 67.7409 60.359 67.8617 60.71 68.085C61.0654 68.3083 61.3298 68.5977 61.5029 68.9531C61.6761 69.3086 61.7627 69.6914 61.7627 70.1016C61.7627 70.735 61.6237 71.266 61.3457 71.6943C61.0723 72.1227 60.6781 72.4486 60.1631 72.6719C59.6481 72.8906 59.0283 73 58.3037 73ZM65.3242 63.0469V73H63.6084V63.0469H65.3242ZM75.3525 63.0469V73H73.6367L69.1729 65.8701V73H67.457V63.0469H69.1729L73.6504 70.1904V63.0469H75.3525ZM82.5986 63.0469V73H80.8828V63.0469H82.5986ZM88.5801 63.0469L84.5469 67.8389L82.25 70.2725L81.9492 68.5703L83.5898 66.5469L86.4883 63.0469H88.5801ZM86.7344 73L83.46 68.2832L84.6426 67.1143L88.7715 73H86.7344ZM96.3047 67.2031V68.5635H91.0205V67.2031H96.3047ZM91.4443 63.0469V73H89.7285V63.0469H91.4443ZM97.624 63.0469V73H95.915V63.0469H97.624ZM103.667 64.373L100.693 73H98.8955L102.642 63.0469H103.79L103.667 64.373ZM106.155 73L103.175 64.373L103.045 63.0469H104.2L107.96 73H106.155ZM106.012 69.3086V70.6689H100.598V69.3086H106.012ZM115.309 71.6396V73H110.312V71.6396H115.309ZM110.79 63.0469V73H109.074V63.0469H110.79ZM118.467 63.0469V73H116.751V63.0469H118.467ZM122.315 63.0469V73H120.6V63.0469H122.315ZM126.376 67.4014V68.7617H121.878V67.4014H126.376ZM126.943 63.0469V64.4141H121.878V63.0469H126.943ZM130.97 64.373L127.996 73H126.198L129.944 63.0469H131.093L130.97 64.373ZM133.458 73L130.478 64.373L130.348 63.0469H131.503L135.263 73H133.458ZM133.314 69.3086V70.6689H127.9V69.3086H133.314ZM145.448 63.0469H147.157V69.6982C147.157 70.4548 146.993 71.0882 146.665 71.5986C146.337 72.109 145.89 72.4941 145.325 72.7539C144.765 73.0091 144.138 73.1367 143.445 73.1367C142.73 73.1367 142.092 73.0091 141.531 72.7539C140.971 72.4941 140.529 72.109 140.205 71.5986C139.886 71.0882 139.727 70.4548 139.727 69.6982V63.0469H141.436V69.6982C141.436 70.1768 141.518 70.571 141.682 70.8809C141.846 71.1862 142.078 71.4118 142.379 71.5576C142.68 71.7035 143.035 71.7764 143.445 71.7764C143.855 71.7764 144.209 71.7035 144.505 71.5576C144.806 71.4118 145.038 71.1862 145.202 70.8809C145.366 70.571 145.448 70.1768 145.448 69.6982V63.0469ZM156.919 63.0469V73H155.203L150.739 65.8701V73H149.023V63.0469H150.739L155.217 70.1904V63.0469H156.919ZM160.795 63.0469V73H159.079V63.0469H160.795ZM166.339 71.1816L168.957 63.0469H170.851L167.282 73H166.004L166.339 71.1816ZM163.919 63.0469L166.517 71.1816L166.872 73H165.587L162.032 63.0469H163.919ZM178.479 71.6396V73H173.195V71.6396H178.479ZM173.681 63.0469V73H171.965V63.0469H173.681ZM177.789 67.2031V68.543H173.195V67.2031H177.789ZM178.445 63.0469V64.4141H173.195V63.0469H178.445ZM179.881 63.0469H183.401C184.158 63.0469 184.803 63.1608 185.336 63.3887C185.869 63.6165 186.277 63.9538 186.56 64.4004C186.847 64.8424 186.99 65.3893 186.99 66.041C186.99 66.5378 186.899 66.9753 186.717 67.3535C186.535 67.7318 186.277 68.0508 185.944 68.3105C185.612 68.5658 185.215 68.764 184.755 68.9053L184.235 69.1582H181.07L181.057 67.7979H183.429C183.839 67.7979 184.181 67.7249 184.454 67.5791C184.728 67.4333 184.933 67.235 185.069 66.9844C185.211 66.7292 185.281 66.4421 185.281 66.123C185.281 65.7767 185.213 65.4759 185.076 65.2207C184.944 64.9609 184.739 64.7627 184.461 64.626C184.183 64.4847 183.83 64.4141 183.401 64.4141H181.597V73H179.881V63.0469ZM185.562 73L183.224 68.5293L185.021 68.5225L187.394 72.9111V73H185.562ZM193.936 70.4365C193.936 70.2314 193.904 70.0492 193.84 69.8896C193.781 69.7301 193.674 69.5843 193.519 69.4521C193.364 69.32 193.145 69.1924 192.862 69.0693C192.584 68.9417 192.229 68.8118 191.796 68.6797C191.322 68.5339 190.884 68.3721 190.483 68.1943C190.087 68.012 189.741 67.8024 189.444 67.5654C189.148 67.3239 188.918 67.0482 188.754 66.7383C188.59 66.4238 188.508 66.0615 188.508 65.6514C188.508 65.2458 188.592 64.8766 188.761 64.5439C188.934 64.2113 189.178 63.9242 189.492 63.6826C189.811 63.4365 190.187 63.2474 190.62 63.1152C191.053 62.9785 191.532 62.9102 192.056 62.9102C192.794 62.9102 193.43 63.0469 193.963 63.3203C194.501 63.5938 194.913 63.9606 195.2 64.4209C195.492 64.8812 195.638 65.3893 195.638 65.9453H193.936C193.936 65.6172 193.865 65.3278 193.724 65.0771C193.587 64.8219 193.377 64.6214 193.095 64.4756C192.817 64.3298 192.464 64.2568 192.035 64.2568C191.63 64.2568 191.292 64.3184 191.023 64.4414C190.755 64.5645 190.554 64.7308 190.422 64.9404C190.29 65.1501 190.224 65.387 190.224 65.6514C190.224 65.8382 190.267 66.0091 190.354 66.1641C190.44 66.3145 190.572 66.4557 190.75 66.5879C190.928 66.7155 191.151 66.8363 191.42 66.9502C191.689 67.0641 192.006 67.1735 192.37 67.2783C192.922 67.4424 193.402 67.6247 193.812 67.8252C194.223 68.0212 194.564 68.2445 194.838 68.4951C195.111 68.7458 195.316 69.0306 195.453 69.3496C195.59 69.6641 195.658 70.0218 195.658 70.4229C195.658 70.8421 195.574 71.2204 195.405 71.5576C195.237 71.8903 194.995 72.1751 194.681 72.4121C194.371 72.6445 193.997 72.8245 193.56 72.9521C193.127 73.0752 192.644 73.1367 192.11 73.1367C191.632 73.1367 191.16 73.0729 190.695 72.9453C190.235 72.8177 189.816 72.624 189.438 72.3643C189.059 72.0999 188.758 71.7718 188.535 71.3799C188.312 70.9834 188.2 70.5208 188.2 69.9922H189.916C189.916 70.3158 189.971 70.5915 190.08 70.8193C190.194 71.0472 190.351 71.234 190.552 71.3799C190.752 71.5212 190.985 71.626 191.249 71.6943C191.518 71.7627 191.805 71.7969 192.11 71.7969C192.511 71.7969 192.846 71.7399 193.115 71.626C193.389 71.512 193.594 71.3525 193.73 71.1475C193.867 70.9424 193.936 70.7054 193.936 70.4365ZM199.008 63.0469V73H197.292V63.0469H199.008ZM205.03 63.0469V73H203.328V63.0469H205.03ZM208.154 63.0469V64.4141H200.231V63.0469H208.154ZM210.526 63.0469L212.837 67.7979L215.147 63.0469H217.048L213.698 69.3359V73H211.969V69.3359L208.619 63.0469H210.526Z" fill="white"/>
</svg>
